# xmcd
#
# Track frame offsets:
#	150
#	15579
#	34779
#	54497
#	68655
#	81927
#	95426
#	109808
#	120627
#	137035
#	151905
#	163413
#
# Disc length: 2322 seconds
#
# Revision: 0
# Processed by: cddbd v1.5.2PL0 Copyright (c) Steve Scherf et al.
# Submitted via: audiograbber 1.83.01
#
DISCID=9909100c
DTITLE=vicente fernandez - vol 4
DYEAR=1900
DGENRE=ranchero
TTITLE0=ya me voy para siempre
TTITLE1=lastima que seas ajena
TTITLE2=la primera con agua
TTITLE3=que dios te perdone
TTITLE4=yo quiero ser
TTITLE5=ay amigo
TTITLE6=senora de tal
TTITLE7=de un rancho a otro
TTITLE8=hoy platique con mi gallo
TTITLE9=como mexico no hay dos
TTITLE10=hasta la tumba
TTITLE11=no me se rajar
EXTD=
EXTT0=
EXTT1=
EXTT2=
EXTT3=
EXTT4=
EXTT5=
EXTT6=
EXTT7=
EXTT8=
EXTT9=
EXTT10=
EXTT11=
PLAYORDER=
